<svg xmlns="http://www.w3.org/2000/svg" id="Capa_1" data-name="Capa 1" viewBox="0 0 60.51 54.62"><defs><style>.cls-1{fill:#df7c3e;}</style></defs><path class="cls-1" d="M15.65,43.67a1.18,1.18,0,1,0,1.18,1.18A1.18,1.18,0,0,0,15.65,43.67Z" transform="translate(-9.74 -12.69)"></path><path class="cls-1" d="M64.07,47.77,52.92,51.6A4.71,4.71,0,0,0,48.27,46H40.62a1.19,1.19,0,0,1-.58-.15l-6.25-3.51a8.19,8.19,0,0,0-4.05-1.06H21.36A3.55,3.55,0,0,0,18,38.94h-7.1a1.18,1.18,0,0,0-1.18,1.18V61.4a1.18,1.18,0,0,0,1.18,1.18H18a3.58,3.58,0,0,0,3.31-2.27,10.72,10.72,0,0,1,3.85,1.14l6.19,3.71a15,15,0,0,0,14,.8l22.06-9.72a4.55,4.55,0,0,0-3.34-8.47ZM19.2,59A1.18,1.18,0,0,1,18,60.22H12.11V41.31H18a1.18,1.18,0,0,1,1.18,1.18Zm47.31-5h0L44.38,63.8a12.54,12.54,0,0,1-5.26,1.14,12.69,12.69,0,0,1-6.54-1.81L26.4,59.42A13.21,13.21,0,0,0,21.56,58V43.67h8.18a5.92,5.92,0,0,1,2.9.76l6.24,3.51a3.54,3.54,0,0,0,1.74.46h7.65a2.37,2.37,0,1,1,0,4.73h-12a1.18,1.18,0,0,0,0,2.36h12a4.74,4.74,0,0,0,2.22-.55L64.86,50a2.19,2.19,0,1,1,1.65,4.06Z" transform="translate(-9.74 -12.69)"></path><path class="cls-1" d="M44.17,41.36a1.17,1.17,0,0,0,1.54,0C55.36,33,61.32,28.77,61.32,22.2c0-5.2-3.68-9.51-8.85-9.51-3.4,0-6,2-7.67,4.9-1.67-2.93-4.27-4.9-7.67-4.9a8.73,8.73,0,0,0-8.43,6.54,1.18,1.18,0,1,0,2.26.66,6.41,6.41,0,0,1,6.17-4.83c3.37,0,5.73,3,6.53,5.78a1.19,1.19,0,0,0,2.28,0c0-.06,1.66-5.78,6.53-5.78,3.7,0,6.49,3.07,6.49,7.14,0,5.26-5.14,9.05-14,16.71C39.53,34.26,35.23,31,32.79,27.79a1.18,1.18,0,0,0-1.66-.22,1.17,1.17,0,0,0-.22,1.65C33.66,32.83,38.31,36.28,44.17,41.36Z" transform="translate(-9.74 -12.69)"></path><path class="cls-1" d="M29.72,23.1a1.19,1.19,0,1,0,1.18,1.19A1.18,1.18,0,0,0,29.72,23.1Z" transform="translate(-9.74 -12.69)"></path></svg>