<svg xmlns="http://www.w3.org/2000/svg" id="Capa_1" data-name="Capa 1" viewBox="0 0 49.8 63.19"><defs><style>.cls-1{fill:#fff;}</style></defs><circle class="cls-1" cx="14.99" cy="53.37" r="0.94"></circle><circle class="cls-1" cx="34.81" cy="53.37" r="0.94"></circle><path class="cls-1" d="M62.7,51.64a11,11,0,0,0-5.84-4L55,47.32a1.78,1.78,0,0,0-1.41-1.27l-2.57-.44a1.77,1.77,0,0,0-1.45.39,2.13,2.13,0,0,0-.29.31l-2.45-.41a2.27,2.27,0,0,1-.31-1.07V43.27a13.61,13.61,0,0,0,1.59-1.18,11.11,11.11,0,0,0,3.74-7.35,2.92,2.92,0,0,0,2.8-2.92v-1.1a2.94,2.94,0,0,0-1.07-2.27V26h1.12a4.8,4.8,0,0,0,4.8-4.79,1.31,1.31,0,0,0-1.31-1.31H53.78L53,14.51a7.06,7.06,0,0,0-8.37-6,24,24,0,0,1-9.33,0,7.06,7.06,0,0,0-8.38,6l-.74,5.37H21.77a1.31,1.31,0,0,0-1.31,1.31A4.8,4.8,0,0,0,25.26,26h1.12v2.47a2.94,2.94,0,0,0-1.07,2.27v1.1a2.92,2.92,0,0,0,2.8,2.92,11.11,11.11,0,0,0,3.74,7.35,13.61,13.61,0,0,0,1.59,1.18v1.56a2.27,2.27,0,0,1-.31,1.07l-2.45.41a2.13,2.13,0,0,0-.29-.31,1.77,1.77,0,0,0-1.45-.39l-2.57.44A1.76,1.76,0,0,0,25,47.32l-1.83.31a11,11,0,0,0-8,10.64V68.54a3.06,3.06,0,0,0,3,3.06h43.7a3.06,3.06,0,0,0,3.05-3.06V58.27a11,11,0,0,0-2.2-6.63Zm-9.27,8.21A6.71,6.71,0,0,0,55,62.94a4.84,4.84,0,0,1,1.28,3.29v3.52H23.71V66.23A4.84,4.84,0,0,1,25,62.94a6.69,6.69,0,0,0,1.6-3.06.86.86,0,0,1,.84-.67H52.6a.84.84,0,0,1,.83.64ZM31,57.35v-6.9l1.05,1.6a5,5,0,0,0,4.15,2.24A18.3,18.3,0,0,0,40,53.52a18.18,18.18,0,0,0,3.78.77,5,5,0,0,0,4.15-2.24l1-1.6v6.9ZM46.38,51a3.12,3.12,0,0,1-3.32,1.32l-1.16-.28,4.72-4.35,1.74.3Zm5.39-22.93a5.48,5.48,0,0,0-1.53.51V26h1.53ZM22.36,21.73H30a.93.93,0,1,0,0-1.85H28.09l.7-5.11A5.22,5.22,0,0,1,35,10.36a25.7,25.7,0,0,0,10,0,5.21,5.21,0,0,1,6.19,4.41l.7,5.11H34.27a.93.93,0,1,0,0,1.85H57.64a3,3,0,0,1-2.9,2.4H25.26a3,3,0,0,1-2.9-2.4ZM29.76,26v2.64a5.38,5.38,0,0,0-1.53-.51V26Zm.15,7.81a.93.93,0,0,0-.93-.9h-.75a1.07,1.07,0,0,1-1.07-1.07v-1.1a1.08,1.08,0,0,1,.4-.84,3.1,3.1,0,0,1,1.86.76,1.29,1.29,0,0,0,2.19-.92V26H48.39v3.74a1.29,1.29,0,0,0,2.19.92,3.12,3.12,0,0,1,1.86-.76,1.08,1.08,0,0,1,.4.84v1.1a1.07,1.07,0,0,1-1.07,1.07H51a.94.94,0,0,0-.93.9,9.3,9.3,0,0,1-3.15,6.9,10.38,10.38,0,0,1-13.88,0,9.3,9.3,0,0,1-3.15-6.9Zm14.8,10.45v.59a3.9,3.9,0,0,0,.43,1.75L40,51.31l-5.14-4.73a3.9,3.9,0,0,0,.43-1.75v-.59a12,12,0,0,0,9.42,0ZM33.38,47.73l4.72,4.35c-.34,0-3,1.26-4.48-1l-2-3Zm-4.21-.28v9.9H27.43a2.59,2.59,0,0,0-.68.09V47.87ZM17,68.54V58.27a9.22,9.22,0,0,1,6.56-8.82l1.39-.24v9.87a2.91,2.91,0,0,0-.12.39,4.8,4.8,0,0,1-1.16,2.22,6.76,6.76,0,0,0-1.76,4.54v3.52H18.15A1.21,1.21,0,0,1,17,68.54Zm46.1,0a1.21,1.21,0,0,1-1.2,1.21H58.14V66.23a6.76,6.76,0,0,0-1.76-4.54,4.88,4.88,0,0,1-1.15-2.25A2,2,0,0,0,55.1,59V55.52a.93.93,0,0,0-1.85,0v1.91a2.75,2.75,0,0,0-.65-.08H50.83v-9.9l2.42.42v3.34a.93.93,0,1,0,1.85,0v-2l1.39.24a9.22,9.22,0,0,1,6.56,8.82Z" transform="translate(-15.1 -8.4)"></path></svg>