<svg xmlns="http://www.w3.org/2000/svg" id="Capa_1" data-name="Capa 1" viewBox="0 0 60.76 64.75"><defs><style>.cls-1{fill:#df7c3e;stroke:#e07c3d;stroke-miterlimit:10;}</style></defs><path class="cls-1" d="M69.35,22.19l-28.94-14a1,1,0,0,0-.82,0l-28.94,14a.94.94,0,0,0-.53.84V57a.94.94,0,0,0,.53.84l28.94,14a1,1,0,0,0,.82,0l28.94-14a.94.94,0,0,0,.53-.84V23A.94.94,0,0,0,69.35,22.19ZM40,10.1,66.8,23,59,26.78l-.16-.1L32.26,13.84Zm-9.85,4.79L56.9,27.81l-5.48,2.64L24.68,17.54ZM57.53,29.58v9.78l-5.12,2.47V32.05ZM68,56.38,40.93,69.45V37.59l6.46-3.12a.93.93,0,0,0,.44-1.24.94.94,0,0,0-1.25-.44L40,36l-2.59-1.25a.93.93,0,1,0-.81,1.68l2.47,1.19V69.45L12,56.38V24.52l20.62,10a.85.85,0,0,0,.4.1,1,1,0,0,0,.85-.53,1,1,0,0,0-.44-1.25L13.2,23l9.28-4.48L50.53,32.1h0V43.32a.94.94,0,0,0,.44.79,1,1,0,0,0,.5.14.9.9,0,0,0,.4-.09l7-3.37A1,1,0,0,0,59.4,40V28.68L68,24.52V56.38Z" transform="translate(-9.62 -7.63)"></path><path class="cls-1" d="M19.7,52.76l-4.25-2a.93.93,0,1,0-.81,1.68l4.24,2a1,1,0,0,0,.41.09.93.93,0,0,0,.41-1.77Z" transform="translate(-9.62 -7.63)"></path><path class="cls-1" d="M23.61,50.21l-8.16-3.93A.93.93,0,0,0,14.64,48l8.15,3.94a1,1,0,0,0,.41.09.92.92,0,0,0,.84-.53A1,1,0,0,0,23.61,50.21Z" transform="translate(-9.62 -7.63)"></path></svg>