<svg xmlns="http://www.w3.org/2000/svg" id="Capa_1" data-name="Capa 1" viewBox="0 0 63.19 63.19"><defs><style>.cls-1{fill:#fff;}</style></defs><path class="cls-1" d="M59.49,8.4A12.12,12.12,0,0,0,47.38,20.51v5.38l-8.77-4.64a2.09,2.09,0,0,0-2.68,0L19.12,30.13a4,4,0,0,0-2.2,1.95L8.81,44.94A2.6,2.6,0,0,0,8.49,47a2.82,2.82,0,0,0,1.43,1.76,3,3,0,0,0,1.42.35,3,3,0,0,0,2.06-.82v8a.93.93,0,0,0,1.86,0V45.52l6.12-9.71a3.63,3.63,0,0,1,.56-.78A6,6,0,0,1,23,34.4L37,27l.25-.14.06,0,0,0,.26.14s14.59,7.7,14.77,7.81l.24.18a3.63,3.63,0,0,1,.56.78l6.13,9.71V65.36H48.8V52.48h1.55a1.72,1.72,0,0,0,1.72-1.71V48.12a1.72,1.72,0,0,0-1.72-1.71H39.85a.93.93,0,1,0,0,1.85H50.22v2.37H24.32V48.26H35.58a.93.93,0,0,0,0-1.85H24.18a1.72,1.72,0,0,0-1.71,1.71v2.65a1.72,1.72,0,0,0,1.71,1.71h1.56V65.36H15.26V60.6a.93.93,0,0,0-1.86,0V70A1.56,1.56,0,0,0,15,71.6H70A1.61,1.61,0,0,0,71.6,70V20.51A12.12,12.12,0,0,0,59.49,8.4ZM25.74,69.75H15.26V67.21H25.74v2.54ZM45.46,52.48l-8.19,7.39-8.19-7.39ZM27.59,53.64l8.3,7.47-8.3,7.48Zm1.49,16.11,8.19-7.39,8.19,7.39ZM47,68.59l-8.3-7.48L47,53.64Zm12.33,1.16H48.8V67.21H59.28Zm6.59-24.54c0-.09-.09-.18-.14-.27L59.32,34.79H69.75V45.21ZM49.23,20.51a10.26,10.26,0,1,1,20.52,0v.16H49.23Zm0,2H69.75V32.94H58.15s-.44-.7-.53-.86a4.09,4.09,0,0,0-2.21-1.95l-6.18-3.26V22.52ZM61,44.76l-6.27-9.93a3.78,3.78,0,0,0-1.64-1.69L38.21,25.27a1.48,1.48,0,0,0-1.49-.19h0c-.08,0-14.57,7.67-14.57,7.67a4.33,4.33,0,0,0-2.33,2.07l-6.26,9.93h0l-1.27,2a1.16,1.16,0,0,1-1.48.36,1,1,0,0,1-.51-.61.76.76,0,0,1,.09-.6s8-12.72,8.13-12.9c.43-.7.43-.7,1.49-1.26l17.28-9.14,17.28,9.14h0c1.06.56,1.06.56,1.48,1.26.1.18.22.38.38.62l7.75,12.28a.72.72,0,0,1,.09.6,1,1,0,0,1-.5.61,1.16,1.16,0,0,1-1.49-.36l-1.27-2Zm8.76,25H61.13V59.33h8.62ZM61.13,57.48V48.29a3,3,0,0,0,3.48.48A2.83,2.83,0,0,0,66,47.06h3.72V57.48Z" transform="translate(-8.4 -8.4)"></path><path class="cls-1" d="M43.61,37.76a6.34,6.34,0,1,0-6.34,6.35,6.34,6.34,0,0,0,6.34-6.35Zm-10.83,0a4.49,4.49,0,1,1,4.49,4.5,4.49,4.49,0,0,1-4.49-4.5Z" transform="translate(-8.4 -8.4)"></path></svg>