<svg xmlns="http://www.w3.org/2000/svg" id="Capa_1" data-name="Capa 1" viewBox="0 0 67.73 62.4"><defs><style>.cls-1{fill:#df7c3e;}</style></defs><path class="cls-1" d="M73.55,69.35,65,60.8A6.54,6.54,0,0,0,61.57,59l-.2,0V41.2l.27,0A9.84,9.84,0,0,0,72,29.25a1.08,1.08,0,0,0-.82-.82,9.79,9.79,0,0,0-9.13,2.64l-.27.29-.44.47V24.09l.1-.07a8,8,0,0,0-.6-13.19,1.1,1.1,0,0,0-1.16,0A8,8,0,0,0,59.11,24l.1.07v2.47l-.43-.42a8.67,8.67,0,0,0-8.08-2.31,1.08,1.08,0,0,0-.82.81A8.74,8.74,0,0,0,58.94,35.3l.27,0v6.29l-.44-.5c-.17-.2-.35-.39-.53-.58A10.68,10.68,0,0,0,48.4,37.6l-.26.06,0-.27a4,4,0,0,0-4-3.45H35.44l-4.07-5.58a7.39,7.39,0,0,0-2-1.87l-.4-.26.44-.18a6.19,6.19,0,0,0,3.81-5.71V16.9h2.3a1.08,1.08,0,1,0,0-2.16H33.59V12.35A3.55,3.55,0,0,0,30,8.8h-6.3a3.55,3.55,0,0,0-3.55,3.55v2.39H18.25a1.08,1.08,0,0,0,0,2.16h2.61v3.44a6.13,6.13,0,0,0,2.42,4.9l.37.29-.45.15a7.31,7.31,0,0,0-5.12,7V47.19a8.21,8.21,0,0,0,4.1,7.09l.12.07v9H10.08a3.95,3.95,0,1,0,0,7.89H11.8a1.08,1.08,0,1,0,0-2.16H10.08a1.79,1.79,0,0,1,0-3.57H23.39a1.08,1.08,0,0,0,1.08-1.08V55.18l.3,0a8.24,8.24,0,0,0,1.48.14h2.89v8.87A4.81,4.81,0,0,1,24.35,69H22.46a1.08,1.08,0,0,0,0,2.16h1.89a7,7,0,0,0,7-7V55.37h5.37V67.25a3.95,3.95,0,1,0,7.9,0V52.79a7,7,0,0,0-7-7H31v-4l.32.1a1.27,1.27,0,0,0,.34,0H44.13a4,4,0,0,0,2.67-1l.4-.36v.54a10.65,10.65,0,0,0,3.14,7.24,10.53,10.53,0,0,0,8.58,3.09l.28,0v7.5L59,59a6.56,6.56,0,0,0-3.39,1.82l-8.52,8.51a1.09,1.09,0,0,0,0,1.54,1.13,1.13,0,0,0,1.53,0l8.52-8.52a4.47,4.47,0,0,1,6.32,0L72,70.88a1.11,1.11,0,0,0,1.53,0,1.07,1.07,0,0,0,.32-.76A1.12,1.12,0,0,0,73.55,69.35ZM22.36,14.74V12.35A1.39,1.39,0,0,1,23.74,11H30a1.39,1.39,0,0,1,1.39,1.39v2.39Zm.66,5.6V16.9h8v3.44a4,4,0,1,1-8,0ZM37.62,48a4.81,4.81,0,0,1,4.8,4.79V67.25a1.79,1.79,0,1,1-3.57,0v-13a1.09,1.09,0,0,0-1.08-1.09H26.25a6,6,0,0,1-5.91-4.91L20.29,48Zm6.51-8.18h-12l-2.66-3a1.07,1.07,0,0,0-.75-.36,1,1,0,0,0-.78.27,1.08,1.08,0,0,0-.09,1.53l1,1.09v6.48H20.24V32.68a5.19,5.19,0,0,1,9.38-3.05l4.39,6a1.08,1.08,0,0,0,.87.45h9.25a1.86,1.86,0,0,1,0,3.71Zm15.08,8.36c0,.31,0,.61-.06.89l0,.2-.2,0a8.89,8.89,0,0,1-1,.06,8.54,8.54,0,0,1-8.46-9.55l0-.2.2,0A8.55,8.55,0,0,1,59.21,48ZM63.62,32.6a7.66,7.66,0,0,1,6.22-2.21l.2,0,0,.2a7.67,7.67,0,0,1-7.6,8.47c-.28,0-.55,0-.83,0l-.2,0,0-.2c0-.23,0-.46,0-.7v-.26A7.59,7.59,0,0,1,63.62,32.6Zm-4.44.3v.21l-.21,0a5.33,5.33,0,0,1-.56,0A6.58,6.58,0,0,1,51.85,26l0-.21.21,0a6.57,6.57,0,0,1,7.1,7.1Zm1.27-10.85-.16.14-.17-.14a5.87,5.87,0,0,1,0-8.83l.17-.15.16.15a5.87,5.87,0,0,1,0,8.83Z" transform="translate(-6.13 -8.8)"></path><path class="cls-1" d="M17.13,69a1.08,1.08,0,0,0-.77,1.84,1.11,1.11,0,0,0,1.53,0,1.05,1.05,0,0,0,.32-.76A1.08,1.08,0,0,0,17.13,69Z" transform="translate(-6.13 -8.8)"></path></svg>