<svg xmlns="http://www.w3.org/2000/svg" id="Capa_1" data-name="Capa 1" viewBox="0 0 64.81 63.19"><defs><style>.cls-1{fill:#fff;}</style></defs><path class="cls-1" d="M58.67,37.35h7a1,1,0,0,0,1-1V24.59A4.56,4.56,0,0,0,62.09,20H58.67a.94.94,0,0,0-1,.95v3.57a.95.95,0,1,0,1.89,0V21.93h2.48a2.66,2.66,0,0,1,2.66,2.66V35.45H59.61v-7.1a.95.95,0,1,0-1.89,0v8a1,1,0,0,0,1,1Z" transform="translate(-7.59 -8.4)"></path><path class="cls-1" d="M47.49,37.35h7.38a1,1,0,0,0,1-1V21a1,1,0,0,0-1-.95H47.49a.94.94,0,0,0-1,.95V36.4A1,1,0,0,0,47.49,37.35Zm.95-15.42h5.48V35.45H48.44Z" transform="translate(-7.59 -8.4)"></path><path class="cls-1" d="M36.31,37.35h7.38a1,1,0,0,0,1-1V21a1,1,0,0,0-1-.95H36.31a1,1,0,0,0-1,.95V36.4a1,1,0,0,0,1,1Zm.95-15.42h5.48V35.45H37.26Z" transform="translate(-7.59 -8.4)"></path><path class="cls-1" d="M14.3,37.35h7a1,1,0,0,0,.94-1V21a.94.94,0,0,0-.94-.95H17.91a4.56,4.56,0,0,0-4.56,4.56V36.4A1,1,0,0,0,14.3,37.35Zm.95-12.76a2.66,2.66,0,0,1,2.66-2.66h2.48V35.45H15.25Z" transform="translate(-7.59 -8.4)"></path><path class="cls-1" d="M25.13,37.35h7.38a1,1,0,0,0,1-1V21a.94.94,0,0,0-1-.95H25.13a1,1,0,0,0-.95.95V36.4A1,1,0,0,0,25.13,37.35Zm.95-15.42h5.48V35.45H26.08Z" transform="translate(-7.59 -8.4)"></path><path class="cls-1" d="M72.41,57.68a3.66,3.66,0,0,0-2-3.24V24.59a8.36,8.36,0,0,0-8.35-8.36H50.21V13.41a5,5,0,0,0-5-5H34.8a5,5,0,0,0-5,5v2.82H17.91a8.36,8.36,0,0,0-8.35,8.36V54.45a3.63,3.63,0,0,0-.9,5.8,3.7,3.7,0,0,0,1.63,1v3.35a7.06,7.06,0,0,0,7.05,7H62.66a7.06,7.06,0,0,0,7-7V61.19a3.64,3.64,0,0,0,2.7-3.51ZM31.69,13.41A3.11,3.11,0,0,1,34.8,10.3H45.2a3.11,3.11,0,0,1,3.11,3.11v2.82H31.69ZM17.91,18.13H62.09a6.46,6.46,0,0,1,6.45,6.46V54H66.65V40.2a1,1,0,0,0-1-1h-7a.94.94,0,0,0-1,1V54h-1.9V40.2a1,1,0,0,0-1-1H47.49a.94.94,0,0,0-1,1V54h-1.9V40.2a1,1,0,0,0-1-1H36.31a1,1,0,0,0-1,1V54h-1.9V40.2a.94.94,0,0,0-1-1H25.13a1,1,0,0,0-.95,1V54h-1.9V40.2a.94.94,0,0,0-1-1h-7a1,1,0,0,0-1,1V54H11.46V24.59a6.46,6.46,0,0,1,6.45-6.46ZM64.75,54H59.61V41.15h5.14ZM53.92,54H48.44V41.15h5.48ZM42.74,54H37.26V41.15h5.48ZM31.56,54H26.08V41.15h5.48ZM20.39,54H15.25V41.15h5.14Zm48.37,5.39H26.84a.95.95,0,1,0,0,1.9h41v3.23a5.16,5.16,0,0,1-5.15,5.15H17.34a5.16,5.16,0,0,1-5.15-5.15V61.32H23.05a1,1,0,0,0,0-1.9H11.24a1.74,1.74,0,0,1-1.75-1.74,1.76,1.76,0,0,1,1.75-1.75H68.76a1.75,1.75,0,1,1,0,3.49Z" transform="translate(-7.59 -8.4)"></path></svg>