<svg xmlns="http://www.w3.org/2000/svg" width="512" height="512" viewBox="0 0 512 512">
    <path fill="#C2175B" d="M180,0h152c99.4,0,180,80.6,180,180v152c0,99.4-80.6,180-180,180H180
	C80.6,512,0,431.4,0,332V180C0,80.6,80.6,0,180,0z"/>
    <path fill="#FFFFFF" d="M364,100H148c-26.5,0-48,21.5-48,48v216c0,26.5,21.5,48,48,48h216c26.5,0,48-21.5,48-48V148
	C412,121.5,390.5,100,364,100z M382,148v42h-60v-60h42C373.9,130,382,138.1,382,148z M232,130h60v60h-60V130z M382,364
	c0,9.9-8.1,18-18,18H148c-9.9,0-18-8.1-18-18V148c0-9.9,8.1-18,18-18h54v68c0,5.2,1.6,10,4.4,13.9c4.4,6.1,11.5,10.1,19.6,10.1h156
	V364z"/>
</svg>