<svg xmlns="http://www.w3.org/2000/svg" width="512" height="512" viewBox="0 0 512 512">
    <path fill="#a0a5ab" d="M292,190H232V130h60Zm72-60H322v60h60V148A18.05,18.05,0,0,0,364,130ZM206.4,211.9A23.71,23.71,0,0,1,202,198V130H148a18.05,18.05,0,0,0-18,18V364a18.05,18.05,0,0,0,18,18H364a18.05,18.05,0,0,0,18-18V222H226A24.1,24.1,0,0,1,206.4,211.9ZM512,180V332c0,99.4-80.6,180-180,180H180C80.6,512,0,431.4,0,332V180C0,80.6,80.6,0,180,0H332C431.4,0,512,80.6,512,180ZM412,148a48,48,0,0,0-48-48H148a48,48,0,0,0-48,48V364a48,48,0,0,0,48,48H364a48,48,0,0,0,48-48Z"/>
</svg>