<svg xmlns="http://www.w3.org/2000/svg" width="20" height="20" viewBox="0 0 20 20">
  <path d="M12.494 11.068h-4.94v.996a1.017 1.017 0 0 1-2.033 0v-.996H1.818V16.3c0 .497.407.9.91.9h14.545a.905.905 0 0 0 .909-.9v-9c0-.497-.407-.9-.91-.9H2.728a.905.905 0 0 0-.909.9v2.042H16.28a.863.863 0 1 1 0 1.726h-1.752v.996a1.017 1.017 0 1 1-2.034 0v-.996zM5.454 4.6v-.9c0-1.491 1.222-2.7 2.728-2.7h3.636c1.506 0 2.727 1.209 2.727 2.7v.9h2.728C18.779 4.6 20 5.809 20 7.3v9c0 1.491-1.221 2.7-2.727 2.7H2.727C1.221 19 0 17.791 0 16.3v-9c0-1.491 1.221-2.7 2.727-2.7h2.728zm1.819 0h5.454v-.9c0-.497-.407-.9-.909-.9H8.182a.905.905 0 0 0-.91.9v.9z"/>
</svg>
