<svg xmlns="http://www.w3.org/2000/svg" width="150" height="150" viewBox="0 0 150 150">
  <path fill="#ffffff" d="M75,150 C33.5769231,150 0,116.423077 0,75 C0,61.6153846 3.51923077,49.0673077 9.66346154,38.1634615 C12.2307692,34.7884615 16.7596154,37.4423077 14.2788462,42.0865385 C8.97115385,51.8942308 5.94230769,63.1153846 5.94230769,75 C5.94230769,113.134615 36.8653846,144.057692 75,144.057692 C113.134615,144.057692 144.057692,113.134615 144.057692,75 C144.057692,36.8653846 113.134615,5.94230769 75,5.94230769 C62.4519231,5.94230769 50.6826923,9.28846154 40.5288462,15.1442308 C35.3653846,18.0288462 33.3461538,12.6634615 36.4903846,10.6153846 C47.7692308,3.89423077 60.9230769,0 75,0 C116.423077,0 150,33.5769231 150,75 C150,116.423077 116.423077,150 75,150 Z M84,75 L67,75 L67,78.5 C67,80.4329966 65.4329966,82 63.5,82 C61.5670034,82 60,80.4329966 60,78.5 L60,75 L47.2575758,75 L47.2575758,93.1893939 C47.2575758,94.9173758 48.6583818,96.3181818 50.3863636,96.3181818 L100.44697,96.3181818 C102.174952,96.3181818 103.575758,94.9173758 103.575758,93.1893939 L103.575758,61.9015152 C103.575758,60.1735333 102.174952,58.7727273 100.44697,58.7727273 L50.3863636,58.7727273 C48.6583818,58.7727273 47.2575758,60.1735333 47.2575758,61.9015152 L47.2575758,69 L97,69 C98.6568542,69 100,70.3431458 100,72 C100,73.6568542 98.6568542,75 97,75 L91,75 L91,78.5 C91,80.4329966 89.4329966,82 87.5,82 C85.5670034,82 84,80.4329966 84,78.5 L84,75 Z M59.7727273,52.5151515 L59.7727273,49.3863636 C59.7727273,44.2024181 63.9751454,40 69.1590909,40 L81.6742424,40 C86.8581879,40 91.0606061,44.2024181 91.0606061,49.3863636 L91.0606061,52.5151515 L100.44697,52.5151515 C105.630915,52.5151515 109.833333,56.7175697 109.833333,61.9015152 L109.833333,93.1893939 C109.833333,98.3733394 105.630915,102.575758 100.44697,102.575758 L50.3863636,102.575758 C45.2024181,102.575758 41,98.3733394 41,93.1893939 L41,61.9015152 C41,56.7175697 45.2024181,52.5151515 50.3863636,52.5151515 L59.7727273,52.5151515 Z M66.030303,52.5151515 L84.8030303,52.5151515 L84.8030303,49.3863636 C84.8030303,47.6583818 83.4022243,46.2575758 81.6742424,46.2575758 L69.1590909,46.2575758 C67.4311091,46.2575758 66.030303,47.6583818 66.030303,49.3863636 L66.030303,52.5151515 Z M29.2788462,33.0865385 C29.2788462,33.1153846 29.2788462,33.1153846 29.2788462,33.0865385 C29.2788462,33.75 28.7596154,34.2692308 28.125,34.2692308 C27.9230769,34.2692308 27.75,34.2115385 27.5769231,34.125 L22.0673077,31.3557692 C19.8173077,30.3461538 18.3173077,28.3557692 18.2884615,26.1057692 C18.2884615,24.4038462 18.0288462,22.4423077 15.3173077,20.1057692 C9.98076923,15.4903846 1.35576923,7.99038462 0.432692308,7.18269231 C0.403846154,7.15384615 0.403846154,7.15384615 0.375,7.125 C0.346153846,7.125 0.346153846,7.125 0.346153846,7.125 C0.144230769,6.92307692 0,6.60576923 0,6.28846154 C0,5.65384615 0.519230769,5.13461538 1.15384615,5.13461538 C1.35576923,5.13461538 1.55769231,5.19230769 1.73076923,5.27884615 L25.4711538,17.3942308 C25.5288462,17.4230769 25.6153846,17.4807692 25.6730769,17.5096154 L25.7596154,17.5673077 C27.8653846,18.7211538 29.2788462,20.7115385 29.2788462,22.9615385 C29.2788462,22.9903846 29.2788462,22.9903846 29.2788462,23.0192308 C29.2788462,23.0192308 29.2788462,26.7692308 29.2788462,29.7115385 C29.2788462,31.9326923 29.2788462,32.9134615 29.2788462,33.0865385 Z"/>
</svg>
