<?xml version="1.0" encoding="UTF-8"?>
<svg width="18px" height="18px" viewBox="0 0 18 18" version="1.1" xmlns="http://www.w3.org/2000/svg" xmlns:xlink="http://www.w3.org/1999/xlink">
    <!-- Generator: Sketch 52.6 (67491) - http://www.bohemiancoding.com/sketch -->
    <title>menu-icon</title>
    <desc>Created with Sketch.</desc>
    <g id="menu-icon" stroke="none" stroke-width="1" fill="none" fill-rule="evenodd">
        <path d="M11.2445521,10.3318123 L6.79903148,10.3318123 L6.79903148,11.2752282 C6.79903148,11.7807091 6.3892582,12.1904824 5.88377724,12.1904824 C5.37829628,12.1904824 4.968523,11.7807091 4.968523,11.2752282 L4.968523,10.3318123 L1.63636364,10.3318123 L1.63636364,15.1615385 C1.63636364,15.6203596 2.00267611,15.9923077 2.45454545,15.9923077 L15.5454545,15.9923077 C15.9973239,15.9923077 16.3636364,15.6203596 16.3636364,15.1615385 L16.3636364,6.85384615 C16.3636364,6.39502498 15.9973239,6.02307692 15.5454545,6.02307692 L2.45454545,6.02307692 C2.00267611,6.02307692 1.63636364,6.39502498 1.63636364,6.85384615 L1.63636364,8.73866642 L14.6485715,8.73866642 C15.0793535,8.73866642 15.4285714,9.0878843 15.4285714,9.51866639 L15.4285714,9.55181228 C15.4285714,9.98259437 15.0793535,10.3318123 14.6485715,10.3318123 L13.0750605,10.3318123 L13.0750605,11.2752282 C13.0750605,11.7807091 12.6652873,12.1904824 12.1598063,12.1904824 C11.6543253,12.1904824 11.2445521,11.7807091 11.2445521,11.2752282 L11.2445521,10.3318123 Z M4.90909091,4.36153846 L4.90909091,3.53076923 C4.90909091,2.1543057 6.00802834,1.03846154 7.36363636,1.03846154 L10.6363636,1.03846154 C11.9919717,1.03846154 13.0909091,2.1543057 13.0909091,3.53076923 L13.0909091,4.36153846 L15.5454545,4.36153846 C16.9010626,4.36153846 18,5.47738262 18,6.85384615 L18,15.1615385 C18,16.538002 16.9010626,17.6538462 15.5454545,17.6538462 L2.45454545,17.6538462 C1.09893743,17.6538462 1.81672859e-16,16.538002 0,15.1615385 L0,6.85384615 C-1.81672859e-16,5.47738262 1.09893743,4.36153846 2.45454545,4.36153846 L4.90909091,4.36153846 Z M6.54545455,4.36153846 L11.4545455,4.36153846 L11.4545455,3.53076923 C11.4545455,3.07194805 11.088233,2.7 10.6363636,2.7 L7.36363636,2.7 C6.91176702,2.7 6.54545455,3.07194805 6.54545455,3.53076923 L6.54545455,4.36153846 Z" id="Combined-Shape" fill="#FFFFFF" fill-rule="nonzero"></path>
    </g>
</svg>